<svg version="1.1" width="4885" height="1964" sodipodi:docname="logo-vert.svg" inkscape:version="1.1 (1:1.1+202105261517+ce6663b3b7)" inkscape:export-filename="/mnt/sdb2/SIMBIOSIS/disenos/pazilda/logo/vert/logo-ver-157,3x143.png" inkscape:export-xdpi="300" inkscape:export-ydpi="300" xmlns:inkscape="http://www.inkscape.org/namespaces/inkscape" xmlns:sodipodi="http://sodipodi.sourceforge.net/DTD/sodipodi-0.dtd" xmlns:xlink="http://www.w3.org/1999/xlink" xmlns="http://www.w3.org/2000/svg" xmlns:svg="http://www.w3.org/2000/svg"><rect id="backgroundrect" width="100%" height="100%" x="0" y="0" fill="none" stroke="none" style="" class=""/>
  <defs id="defs6">
    <linearGradient gradientUnits="userSpaceOnUse" y2="552.8919677734375" x2="3543.30712890625" y1="552.8919677734375" x1="0" id="linearGradient3832" xlink:href="#linearGradient3826" inkscape:collect="always"/>
    <linearGradient id="linearGradient3826" inkscape:collect="always">
      <stop id="stop3828" offset="0" style="stop-color:#000000;stop-opacity:1;"/>
      <stop id="stop3830" offset="1" style="stop-color:#000000;stop-opacity:0;"/>
    </linearGradient>
    <marker inkscape:stockid="Arrow1Lend" orient="auto" refY="0" refX="0" id="Arrow1Lend" style="overflow:visible">
      <path id="path5002" d="M 0,0 5,-5 -12.5,0 5,5 Z" style="fill-rule:evenodd;stroke:#000000;stroke-width:1pt;marker-start:none" transform="scale(-0.8)" inkscape:connector-curvature="0"/>
    </marker>
    <marker inkscape:stockid="Arrow1Lstart" orient="auto" refY="0" refX="0" id="Arrow1Lstart" style="overflow:visible">
      <path id="path5005" d="M 0,0 5,-5 -12.5,0 5,5 Z" style="fill-rule:evenodd;stroke:#000000;stroke-width:1pt;marker-start:none" transform="scale(0.8)" inkscape:connector-curvature="0"/>
    </marker>
    <marker inkscape:stockid="Arrow2Lstart" orient="auto" refY="0" refX="0" id="Arrow2Lstart" style="overflow:visible">
      <path id="path4987" style="font-size:12px;fill-rule:evenodd;stroke-width:0.625;stroke-linejoin:round" d="M4.0904467878673305,4.437108816171741 L-7.928018502625882,0.017614586381785872 L4.090447447867346,-4.401878675408149 c-1.920048281615925,2.609267046554339 -1.9089849213761332,6.1791972239304895 -6.600000143051147e-7,8.838987491579891 z" inkscape:connector-curvature="0"/>
    </marker>
    <marker inkscape:stockid="Arrow1Mend" orient="auto" refY="0" refX="0" id="Arrow1Mend" style="overflow:visible">
      <path id="path2385" d="M 0,0 5,-5 -12.5,0 5,5 Z" style="fill-rule:evenodd;stroke:#000000;stroke-width:1pt;marker-start:none" transform="scale(-0.4)" inkscape:connector-curvature="0"/>
    </marker>
    <marker inkscape:stockid="Arrow1Mstart" orient="auto" refY="0" refX="0" id="Arrow1Mstart" style="overflow:visible">
      <path id="path2388" d="M 0,0 5,-5 -12.5,0 5,5 Z" style="fill-rule:evenodd;stroke:#000000;stroke-width:1pt;marker-start:none" transform="scale(0.4)" inkscape:connector-curvature="0"/>
    </marker>
    <marker inkscape:stockid="Arrow1Lend" orient="auto" refY="0" refX="0" id="Arrow1Lend-5" style="overflow:visible">
      <path id="path5002-6" d="M 0,0 5,-5 -12.5,0 5,5 Z" style="fill-rule:evenodd;stroke:#000000;stroke-width:1pt;marker-start:none" transform="scale(-0.8)" inkscape:connector-curvature="0"/>
    </marker>
    <marker inkscape:stockid="Arrow1Lstart" orient="auto" refY="0" refX="0" id="Arrow1Lstart-2" style="overflow:visible">
      <path id="path5005-9" d="M 0,0 5,-5 -12.5,0 5,5 Z" style="fill-rule:evenodd;stroke:#000000;stroke-width:1pt;marker-start:none" transform="scale(0.8)" inkscape:connector-curvature="0"/>
    </marker>
    <marker inkscape:stockid="Arrow2Lstart" orient="auto" refY="0" refX="0" id="Arrow2Lstart-1" style="overflow:visible">
      <path id="path4987-2" style="font-size:12px;fill-rule:evenodd;stroke-width:0.625;stroke-linejoin:round" d="M4.0904467878673305,4.437108816171741 L-7.928018502625882,0.017614586381785872 L4.090447447867346,-4.401878675408149 c-1.920048281615925,2.609267046554339 -1.9089849213761332,6.1791972239304895 -6.600000143051147e-7,8.838987491579891 z" inkscape:connector-curvature="0"/>
    </marker>
    <marker inkscape:stockid="Arrow1Mend" orient="auto" refY="0" refX="0" id="Arrow1Mend-7" style="overflow:visible">
      <path id="path2385-0" d="M 0,0 5,-5 -12.5,0 5,5 Z" style="fill-rule:evenodd;stroke:#000000;stroke-width:1pt;marker-start:none" transform="scale(-0.4)" inkscape:connector-curvature="0"/>
    </marker>
    <marker inkscape:stockid="Arrow1Mstart" orient="auto" refY="0" refX="0" id="Arrow1Mstart-9" style="overflow:visible">
      <path id="path2388-3" d="M 0,0 5,-5 -12.5,0 5,5 Z" style="fill-rule:evenodd;stroke:#000000;stroke-width:1pt;marker-start:none" transform="scale(0.4)" inkscape:connector-curvature="0"/>
    </marker>
    <marker inkscape:stockid="Arrow1Lend" orient="auto" refY="0" refX="0" id="Arrow1Lend-6" style="overflow:visible">
      <path id="path5002-1" d="M 0,0 5,-5 -12.5,0 5,5 Z" style="fill-rule:evenodd;stroke:#000000;stroke-width:1pt;marker-start:none" transform="scale(-0.8)" inkscape:connector-curvature="0"/>
    </marker>
    <marker inkscape:stockid="Arrow1Lstart" orient="auto" refY="0" refX="0" id="Arrow1Lstart-8" style="overflow:visible">
      <path id="path5005-7" d="M 0,0 5,-5 -12.5,0 5,5 Z" style="fill-rule:evenodd;stroke:#000000;stroke-width:1pt;marker-start:none" transform="scale(0.8)" inkscape:connector-curvature="0"/>
    </marker>
    <marker inkscape:stockid="Arrow2Lstart" orient="auto" refY="0" refX="0" id="Arrow2Lstart-9" style="overflow:visible">
      <path id="path4987-20" style="font-size:12px;fill-rule:evenodd;stroke-width:0.625;stroke-linejoin:round" d="M4.0904467878673305,4.437108816171741 L-7.928018502625882,0.017614586381785872 L4.090447447867346,-4.401878675408149 c-1.920048281615925,2.609267046554339 -1.9089849213761332,6.1791972239304895 -6.600000143051147e-7,8.838987491579891 z" inkscape:connector-curvature="0"/>
    </marker>
    <marker inkscape:stockid="Arrow1Mend" orient="auto" refY="0" refX="0" id="Arrow1Mend-2" style="overflow:visible">
      <path id="path2385-3" d="M 0,0 5,-5 -12.5,0 5,5 Z" style="fill-rule:evenodd;stroke:#000000;stroke-width:1pt;marker-start:none" transform="scale(-0.4)" inkscape:connector-curvature="0"/>
    </marker>
    <marker inkscape:stockid="Arrow1Mstart" orient="auto" refY="0" refX="0" id="Arrow1Mstart-7" style="overflow:visible">
      <path id="path2388-5" d="M 0,0 5,-5 -12.5,0 5,5 Z" style="fill-rule:evenodd;stroke:#000000;stroke-width:1pt;marker-start:none" transform="scale(0.4)" inkscape:connector-curvature="0"/>
    </marker>
  </defs>
  <sodipodi:namedview id="namedview4" pagecolor="#ffffff" bordercolor="#666666" borderopacity="1.0" inkscape:pageshadow="2" inkscape:pageopacity="0.0" inkscape:pagecheckerboard="0" showgrid="false" inkscape:snap-center="true" inkscape:snap-object-midpoints="true" inkscape:snap-grids="false" inkscape:snap-page="true" inkscape:object-paths="true" inkscape:snap-bbox="true" inkscape:bbox-paths="true" inkscape:bbox-nodes="true" showguides="true" inkscape:guide-bbox="true" inkscape:snap-global="true" inkscape:zoom="0.05656854" inkscape:cx="2474.8738" inkscape:cy="2430.6797" inkscape:window-width="1364" inkscape:window-height="707" inkscape:window-x="0" inkscape:window-y="0" inkscape:window-maximized="1" inkscape:current-layer="g8" fit-margin-top="0" fit-margin-left="0" fit-margin-right="0" fit-margin-bottom="0">
    <sodipodi:guide position="2972.9679,2802.3643" orientation="1,0" id="guide127539"/>
    <sodipodi:guide position="3702.0373,2935.831" orientation="0,-1" id="guide127541"/>
    <sodipodi:guide position="644.91503,4096.7388" orientation="1,0" id="guide127543"/>
    <sodipodi:guide position="5380.6488,4097.6783" orientation="1,0" id="guide127545"/>
    <sodipodi:guide position="0,4977.9668" orientation="1,0" id="guide127547"/>
    <sodipodi:guide position="5945.9359,5384.5532" orientation="1,0" id="guide127549"/>
    <sodipodi:guide position="3818.3767,5384.5532" orientation="0,-1" id="guide127551"/>
    <sodipodi:guide position="2555.8646,4726.1293" orientation="0,-1" id="guide127657"/>
    <sodipodi:guide position="-939.32568,2613.3735" orientation="0,-1" id="guide127659"/>
    <sodipodi:guide position="4578.5165,1379.7375" orientation="0,-1" id="guide148287"/>
    <sodipodi:guide position="-930.43896,1057.28" orientation="0,-1" id="guide148289"/>
    <sodipodi:guide position="644.91468,644.91478" orientation="0,-1" id="guide148291"/>
    <sodipodi:guide position="-776.54864,-24.823106" orientation="0,-1" id="guide148293"/>
    <sodipodi:guide position="3702.0373,2935.831" orientation="0,-1" id="guide1256"/>
  </sodipodi:namedview>
  
<g class="currentLayer" style=""><title>Layer 1</title>
    
    
    <g inkscape:label="Layer 1" id="layer1" class=""/>
    
    
    
  <g id="g127486" transform="rotate(-22.376, 2067.2, 1995.97)" class="">
      <path style="fill:#f4b295;fill-opacity:1;stroke:none;stroke-width:3.82778;stroke-linecap:round;stroke-linejoin:round;stroke-opacity:1" d="m2504.5767631835934,1207.5281195458983 c60.1495,-14.51477 124.0949,-4.0938 173.7896,37.33623 c70.9574,-54.91206 222.9791,-79.65648 326.4004,-46.95059 c231.0942,-117.8788 429.7757,-133.98781 584.1754,-74.60722 c-33.9303,41.93815 -66.9803,79.28498 -110.6218,121.86077 c220.7583,-38.16067 397.264,-30.45536 581.9136,8.16207 c-40.3749,39.87117 -86.6469,79.86494 -137.8817,119.16657 c101.5451,-12.3169 215.9494,-9.36528 330.626,17.13133 c-293.9298,353.92879 -874.946,565.918098 -1294.3107,567.036034 c-216.7954,1.3816030000000001 -442.4731,-36.183003 -678.4623,-120.516614 c-513.4665,-183.76546 -1260.2459,-768.04862 -1951.6854,-799.92622 c138.4726,-780.34057 1664.8283,-1583.97987 2911.9802,-495.82107 c-652.8171,-184.7025 -1176.6619,13.2555 -1508.7146,283.9638 z" id="hand" sodipodi:nodetypes="cccccccccccccc"/>
      <path style="fill:#b24f26;fill-opacity:1;stroke:none;stroke-width:3.82778;stroke-linecap:round;stroke-linejoin:round;stroke-opacity:1" d="m3100.4231631835937,1196.4718895458982 c-60.1495,14.5148 -124.0949,4.0938 -173.7896,-37.3362 c-70.9574,54.912 -222.9791,79.6565 -326.4004,46.9506 c-231.0942,117.8788 -429.7757,133.9878 -584.1754,74.6072 c33.9303,-41.9382 66.9803,-79.285 110.6218,-121.8608 c-220.7583,38.1607 -397.264,30.4554 -581.9136,-8.162 c40.3749,-39.8712 86.6469,-79.865 137.8817,-119.1666 c-101.5451,12.3169 -215.9494,9.3653 -330.626,-17.1313 c558.7042,-535.54418 1323.2084,-674.14108 1972.773,-446.51948 c513.4665,183.7655 1260.2459,768.04868 1951.6851,799.92628 c-138.472,780.34048 -1664.828,1583.97979 -2911.9799,495.82098 c698.9032,201.705304 1069.8981,-151.1256 1508.7146,-283.9638 z" id="path51865" sodipodi:nodetypes="ccccccccccccc"/>
      <path style="fill:#f4b295;fill-opacity:1;stroke:none;stroke-width:3.82778;stroke-linecap:round;stroke-linejoin:round;stroke-opacity:1" d="m2678.3663631835934,1244.8643495458982 c70.9574,-54.91206 222.9791,-79.65648 326.4004,-46.95059 c231.0942,-117.8788 429.7757,-133.98781 584.1754,-74.60722 c-33.9303,41.93815 -66.9803,79.28498 -110.6218,121.86077 c220.7583,-38.16067 397.2042,-19.88819 581.9136,8.16207 c-40.3749,39.87117 -86.6469,79.86494 -137.8817,119.16657 c101.5451,-12.3169 215.9494,-9.36528 330.626,17.13133 c-567.9156,529.046371 -1318.6414,675.741399 -1972.773,446.51942 z" id="path53688" sodipodi:nodetypes="ccccccccc"/>
      <path id="handbg-0" style="fill:#1a1a1a;fill-opacity:1;stroke:none;stroke-width:3.82778;stroke-linecap:round;stroke-linejoin:round;stroke-opacity:1" d="m3004.028963183594,1244.5057895458986 c-114.801,-45.37334 -286.2231,-3.31243 -327.9009,64.01835 c-39.8378,-47.48257 -215.6132,-46.59857 -283.3449,-20.60375 c91.7816,-31.2478 144.5047,-61.744 208.1877,-128.4261 c114.801,45.3733 286.2231,3.3124000000000002 327.9009,-64.0184 c39.8378,47.4826 215.6132,46.59863 283.3449,20.60383 c-91.7816,31.24774 -144.5047,61.74397 -208.1877,128.42607 zm-1652.0075,-230.133 c73.3589,20.8545 184.7788,28.9761 253.2708,21.787 c-68.5812,-0.5192 -157.2714,-12.9092 -207.9416,-30.7653 c467.0245,-455.69408 1235.4553,-645.09598 1912.7283,-389.66868 c-696.595,-143.5202 -1374.0448,151.8428 -1766.0873,535.71008 c125.3172,24.5564 256.7153,39.4503 384.0005,30.4147 c-119.5964,-2.1626 -214.3242,-15.6625 -332.8734,-44.1648 c506.4949,-407.39148 1148.4601,-571.73588 1695.6033,-468.75608 c-538.9249,-31.6885 -989.6253,267.1654 -1281.5638,616.33928 c128.1272,30.813 195.8073,42.0898 322.4406,16.5931 c-111.1551,7.574 -200.8069,-5.1789 -261.1357,-34.5467 c304.2759,-312.90178 763.4675,-558.41228 1212.4755,-534.94938 c712.5922,37.0089 1147.5661,597.01188 1944.9481,665.86858 C4950.432863183594,2302.4929595458984 3506.2760631835936,2720.2047095458984 2478.5071631835935,1896.1818095458984 c682.7243,148.978455 1354.9046,-31.78294 1774.4711,-506.5545 c-73.359,-20.8545 -184.779,-28.9761 -253.2708,-21.787 c68.5808,0.5192 157.2718,12.9092 207.9418,30.7653 c-467.0247,455.69408 -1235.4555,645.09598 -1912.7285,389.66868 c696.595,143.5202 1374.0448,-151.8428 1766.0875,-535.71008 c-125.3174,-24.5564 -256.7155,-39.4503 -384.0007,-30.4147 c119.5964,2.1626 214.3242,15.6625 332.8734,44.1648 c-506.4949,407.39148 -1148.4601,571.73588 -1695.6033,468.75608 c538.9249,31.6885 989.6253,-267.1654 1281.5638,-616.33928 c-128.1272,-30.813 -195.8073,-42.0898 -322.4406,-16.5931 c111.1551,-7.574 200.8069,5.1789 261.1357,34.5467 c-304.2759,312.90178 -763.4675,558.41228 -1212.4755,534.94938 c-712.5922,-37.0089 -1147.5661,-597.01188 -1944.9481,-665.86858 c277.4539,-904.2584 1721.6102,-1321.9701 2749.3791,-497.9472 c-589.9314,-152.5116 -1336.3983,10.8415 -1774.4706,506.55448 zm-1023.5015,21.84772 c691.4394,31.8776 1438.2187,616.16078 1951.6853,799.92618 c26.3432,10.2892 52.7507,19.877 81.7485,28.11739 c1249.6978,1087.49538 2776.053,283.85598 2914.526,-496.48449 c-691.4394,-31.8776 -1438.2187,-616.16078 -1951.6853,-799.92618 c-26.3432,-10.2892 -52.7507,-19.877 -81.7485,-28.1174 c-1249.6978,-1087.4954 -2776.053,-283.856 -2914.526,496.4845 z" sodipodi:nodetypes="ccccccccccccccccccccccccccccccccccccccccccc"/>
    </g><path fill="" fill-opacity="1" stroke="#000000" stroke-opacity="1" stroke-width="1" stroke-dasharray="none" stroke-linejoin="miter" stroke-linecap="butt" stroke-dashoffset="" fill-rule="nonzero" opacity="1" marker-start="" marker-mid="" marker-end="" d="M661.6255683898926,3939.5119991302495L1881.6255393028257,3259.5120153427124" id="svg_1"/><path fill="" fill-opacity="1" stroke="#000000" stroke-opacity="1" stroke-width="1" stroke-dasharray="none" stroke-linejoin="miter" stroke-linecap="butt" stroke-dashoffset="" fill-rule="nonzero" opacity="1" marker-start="" marker-mid="" marker-end="" d="M1881.6255393028257,3259.5120153427124L2488.292191505432,4059.511996269226" id="svg_3"/></g></svg>